<svg xmlns="http://www.w3.org/2000/svg" viewBox="0 0 1327.6 817.6"><path fill="#2e3192" d="M747.7 595.3v222.3l96.2-55.6 96.2-55.6-96.2-55.5-96.2-55.6z"/><path d="M1241.1 268.7c-56.4-58.3-135.8-90.5-223.7-90.5-64.3 0-124.5 16.5-183.9 50.4-29.7 16.9-59.6 38.4-91.2 65.6-32.6 28-63 58.5-92.5 88L555.1 479c-24.2 24.8-49.2 50.5-76 73.9-59.8 52.1-111.1 76.4-161.3 76.4-75.1 0-127.5-54.8-127.5-133.2 0-56.9 37.7-109 91.7-126.7 21.5-7.1 45.3-8.4 68.7-4.1 28 5.2 56.6 18.6 87.3 41.2l26.3 19.3 116.3-137.4-28.9-22.4c-57.1-44.1-112-71-167.5-82a206.76 206.76 0 01301.6-55.8l69.1-53.9A291.12 291.12 0 00560.3 0c-121.6 0-225.9 74.3-270 179.9-6 .6-12 1.4-17.9 2.3C114.6 206.7 0 338.7 0 496c0 184.2 130.5 317.9 310.2 317.9 164 0 272.5-108.8 368.3-204.7l93.4-95.5c25.1-25.7 51-52.3 78.7-76.3 58.9-50.9 109.5-74.6 159.2-74.6 75.1 0 127.5 54.8 127.5 133.2 0 67.8-52.7 126-119.9 132.6l-46.6 4.6 72.6 179.5 28.6-5.9c72.6-15.1 138.2-54.8 184.5-111.6a316.61 316.61 0 0071.1-199.1c.1-89-30.7-169.7-86.5-227.4z" fill="#2e3192"/><path d="M741.5 192.8l73.2-44.5a296.75 296.75 0 00-37.6-52l-67.8 52.9a205.78 205.78 0 0132.2 43.6z" fill="#2e3192"/></svg>